<svg width="43" height="42" viewBox="0 0 43 42" fill="none" xmlns="http://www.w3.org/2000/svg">
<mask id="path-1-inside-1_127_1035" fill="white">
<path d="M8.8999 9.54532C8.8999 9.039 9.12115 8.55341 9.51498 8.19539C9.90881 7.83737 10.4429 7.63623 10.9999 7.63623H31.9999C32.5569 7.63623 33.091 7.83737 33.4848 8.19539C33.8787 8.55341 34.0999 9.039 34.0999 9.54532C34.0999 10.0516 33.8787 10.5372 33.4848 10.8953C33.091 11.2533 32.5569 11.4544 31.9999 11.4544H10.9999C10.4429 11.4544 9.90881 11.2533 9.51498 10.8953C9.12115 10.5372 8.8999 10.0516 8.8999 9.54532ZM8.8999 17.1817C8.8999 16.6754 9.12115 16.1898 9.51498 15.8318C9.90881 15.4737 10.4429 15.2726 10.9999 15.2726H31.9999C32.5569 15.2726 33.091 15.4737 33.4848 15.8318C33.8787 16.1898 34.0999 16.6754 34.0999 17.1817C34.0999 17.688 33.8787 18.1736 33.4848 18.5316C33.091 18.8896 32.5569 19.0908 31.9999 19.0908H10.9999C10.4429 19.0908 9.90881 18.8896 9.51498 18.5316C9.12115 18.1736 8.8999 17.688 8.8999 17.1817ZM10.9999 22.909C10.4429 22.909 9.90881 23.1101 9.51498 23.4681C9.12115 23.8261 8.8999 24.3117 8.8999 24.818C8.8999 25.3244 9.12115 25.81 9.51498 26.168C9.90881 26.526 10.4429 26.7271 10.9999 26.7271H31.9999C32.5569 26.7271 33.091 26.526 33.4848 26.168C33.8787 25.81 34.0999 25.3244 34.0999 24.818C34.0999 24.3117 33.8787 23.8261 33.4848 23.4681C33.091 23.1101 32.5569 22.909 31.9999 22.909H10.9999ZM8.8999 32.4544C8.8999 31.9481 9.12115 31.4625 9.51498 31.1045C9.90881 30.7465 10.4429 30.5453 10.9999 30.5453H19.3999C19.9569 30.5453 20.491 30.7465 20.8848 31.1045C21.2787 31.4625 21.4999 31.9481 21.4999 32.4544C21.4999 32.9607 21.2787 33.4463 20.8848 33.8043C20.491 34.1624 19.9569 34.3635 19.3999 34.3635H10.9999C10.4429 34.3635 9.90881 34.1624 9.51498 33.8043C9.12115 33.4463 8.8999 32.9607 8.8999 32.4544Z"/>
</mask>
<path d="M8.8999 9.54532C8.8999 9.039 9.12115 8.55341 9.51498 8.19539C9.90881 7.83737 10.4429 7.63623 10.9999 7.63623H31.9999C32.5569 7.63623 33.091 7.83737 33.4848 8.19539C33.8787 8.55341 34.0999 9.039 34.0999 9.54532C34.0999 10.0516 33.8787 10.5372 33.4848 10.8953C33.091 11.2533 32.5569 11.4544 31.9999 11.4544H10.9999C10.4429 11.4544 9.90881 11.2533 9.51498 10.8953C9.12115 10.5372 8.8999 10.0516 8.8999 9.54532ZM8.8999 17.1817C8.8999 16.6754 9.12115 16.1898 9.51498 15.8318C9.90881 15.4737 10.4429 15.2726 10.9999 15.2726H31.9999C32.5569 15.2726 33.091 15.4737 33.4848 15.8318C33.8787 16.1898 34.0999 16.6754 34.0999 17.1817C34.0999 17.688 33.8787 18.1736 33.4848 18.5316C33.091 18.8896 32.5569 19.0908 31.9999 19.0908H10.9999C10.4429 19.0908 9.90881 18.8896 9.51498 18.5316C9.12115 18.1736 8.8999 17.688 8.8999 17.1817ZM10.9999 22.909C10.4429 22.909 9.90881 23.1101 9.51498 23.4681C9.12115 23.8261 8.8999 24.3117 8.8999 24.818C8.8999 25.3244 9.12115 25.81 9.51498 26.168C9.90881 26.526 10.4429 26.7271 10.9999 26.7271H31.9999C32.5569 26.7271 33.091 26.526 33.4848 26.168C33.8787 25.81 34.0999 25.3244 34.0999 24.818C34.0999 24.3117 33.8787 23.8261 33.4848 23.4681C33.091 23.1101 32.5569 22.909 31.9999 22.909H10.9999ZM8.8999 32.4544C8.8999 31.9481 9.12115 31.4625 9.51498 31.1045C9.90881 30.7465 10.4429 30.5453 10.9999 30.5453H19.3999C19.9569 30.5453 20.491 30.7465 20.8848 31.1045C21.2787 31.4625 21.4999 31.9481 21.4999 32.4544C21.4999 32.9607 21.2787 33.4463 20.8848 33.8043C20.491 34.1624 19.9569 34.3635 19.3999 34.3635H10.9999C10.4429 34.3635 9.90881 34.1624 9.51498 33.8043C9.12115 33.4463 8.8999 32.9607 8.8999 32.4544Z" fill="white" fill-opacity="0.2"/>
<path d="M10.9999 7.63623V11.6362V7.63623ZM9.51498 23.4681L6.82429 20.5084L9.51498 23.4681ZM33.4848 23.4681L36.1755 20.5084L33.4848 23.4681ZM8.8999 9.54532H12.8999C12.8999 10.2296 12.5975 10.7989 12.2057 11.1552L9.51498 8.19539L6.82429 5.23563C5.6448 6.30789 4.8999 7.84844 4.8999 9.54532H8.8999ZM9.51498 8.19539L12.2057 11.1552C11.8265 11.4998 11.3873 11.6362 10.9999 11.6362V7.63623V3.63623C9.49861 3.63623 7.99109 4.1749 6.82429 5.23563L9.51498 8.19539ZM10.9999 7.63623V11.6362H31.9999V7.63623V3.63623H10.9999V7.63623ZM31.9999 7.63623V11.6362C31.6125 11.6362 31.1733 11.4998 30.7941 11.1552L33.4848 8.19539L36.1755 5.23563C35.0087 4.1749 33.5012 3.63623 31.9999 3.63623V7.63623ZM33.4848 8.19539L30.7941 11.1552C30.4023 10.7989 30.0999 10.2295 30.0999 9.54532H34.0999H38.0999C38.0999 7.84845 37.355 6.3079 36.1755 5.23563L33.4848 8.19539ZM34.0999 9.54532H30.0999C30.0999 8.8611 30.4023 8.29172 30.7941 7.93549L33.4848 10.8953L36.1755 13.855C37.355 12.7827 38.0999 11.2422 38.0999 9.54532H34.0999ZM33.4848 10.8953L30.7941 7.93549C31.1733 7.59081 31.6125 7.45441 31.9999 7.45441V11.4544V15.4544C33.5012 15.4544 35.0087 14.9157 36.1755 13.855L33.4848 10.8953ZM31.9999 11.4544V7.45441H10.9999V11.4544V15.4544H31.9999V11.4544ZM10.9999 11.4544V7.45441C11.3873 7.45441 11.8265 7.59081 12.2057 7.93549L9.51498 10.8953L6.82429 13.855C7.99109 14.9157 9.49861 15.4544 10.9999 15.4544V11.4544ZM9.51498 10.8953L12.2057 7.93549C12.5975 8.29171 12.8999 8.86108 12.8999 9.54532H8.8999H4.8999C4.8999 11.2422 5.6448 12.7827 6.82429 13.855L9.51498 10.8953ZM8.8999 17.1817H12.8999C12.8999 17.8659 12.5975 18.4353 12.2057 18.7915L9.51498 15.8318L6.82429 12.872C5.6448 13.9443 4.8999 15.4848 4.8999 17.1817H8.8999ZM9.51498 15.8318L12.2057 18.7915C11.8265 19.1362 11.3873 19.2726 10.9999 19.2726V15.2726V11.2726C9.49861 11.2726 7.99109 11.8113 6.82429 12.872L9.51498 15.8318ZM10.9999 15.2726V19.2726H31.9999V15.2726V11.2726H10.9999V15.2726ZM31.9999 15.2726V19.2726C31.6125 19.2726 31.1733 19.1362 30.7941 18.7915L33.4848 15.8318L36.1755 12.872C35.0087 11.8113 33.5012 11.2726 31.9999 11.2726V15.2726ZM33.4848 15.8318L30.7941 18.7915C30.4023 18.4353 30.0999 17.8659 30.0999 17.1817H34.0999H38.0999C38.0999 15.4848 37.355 13.9443 36.1755 12.872L33.4848 15.8318ZM34.0999 17.1817H30.0999C30.0999 16.4975 30.4023 15.9281 30.7941 15.5719L33.4848 18.5316L36.1755 21.4914C37.355 20.4191 38.0999 18.8786 38.0999 17.1817H34.0999ZM33.4848 18.5316L30.7941 15.5719C31.1733 15.2272 31.6125 15.0908 31.9999 15.0908V19.0908V23.0908C33.5012 23.0908 35.0087 22.5521 36.1755 21.4914L33.4848 18.5316ZM31.9999 19.0908V15.0908H10.9999V19.0908V23.0908H31.9999V19.0908ZM10.9999 19.0908V15.0908C11.3873 15.0908 11.8265 15.2272 12.2057 15.5719L9.51498 18.5316L6.82429 21.4914C7.99109 22.5521 9.49861 23.0908 10.9999 23.0908V19.0908ZM9.51498 18.5316L12.2057 15.5719C12.5975 15.9281 12.8999 16.4974 12.8999 17.1817H8.8999H4.8999C4.8999 18.8786 5.6448 20.4191 6.82429 21.4914L9.51498 18.5316ZM10.9999 22.909V18.909C9.49861 18.909 7.99109 19.4476 6.82429 20.5084L9.51498 23.4681L12.2057 26.4279C11.8265 26.7726 11.3873 26.909 10.9999 26.909V22.909ZM9.51498 23.4681L6.82429 20.5084C5.6448 21.5806 4.8999 23.1212 4.8999 24.818H8.8999H12.8999C12.8999 25.5023 12.5975 26.0717 12.2057 26.4279L9.51498 23.4681ZM8.8999 24.818H4.8999C4.8999 26.5149 5.6448 28.0555 6.82429 29.1277L9.51498 26.168L12.2057 23.2082C12.5975 23.5644 12.8999 24.1338 12.8999 24.818H8.8999ZM9.51498 26.168L6.82429 29.1277C7.99109 30.1885 9.49861 30.7271 10.9999 30.7271V26.7271V22.7271C11.3873 22.7271 11.8265 22.8635 12.2057 23.2082L9.51498 26.168ZM10.9999 26.7271V30.7271H31.9999V26.7271V22.7271H10.9999V26.7271ZM31.9999 26.7271V30.7271C33.5012 30.7271 35.0087 30.1885 36.1755 29.1277L33.4848 26.168L30.7941 23.2082C31.1733 22.8635 31.6125 22.7271 31.9999 22.7271V26.7271ZM33.4848 26.168L36.1755 29.1277C37.355 28.0555 38.0999 26.5149 38.0999 24.818H34.0999H30.0999C30.0999 24.1338 30.4023 23.5644 30.7941 23.2082L33.4848 26.168ZM34.0999 24.818H38.0999C38.0999 23.1212 37.355 21.5806 36.1755 20.5084L33.4848 23.4681L30.7941 26.4279C30.4023 26.0717 30.0999 25.5023 30.0999 24.818H34.0999ZM33.4848 23.4681L36.1755 20.5084C35.0087 19.4476 33.5012 18.909 31.9999 18.909V22.909V26.909C31.6125 26.909 31.1733 26.7726 30.7941 26.4279L33.4848 23.4681ZM31.9999 22.909V18.909H10.9999V22.909V26.909H31.9999V22.909ZM8.8999 32.4544H12.8999C12.8999 33.1386 12.5975 33.708 12.2057 34.0642L9.51498 31.1045L6.82429 28.1447C5.64479 29.217 4.8999 30.7575 4.8999 32.4544H8.8999ZM9.51498 31.1045L12.2057 34.0642C11.8265 34.4089 11.3873 34.5453 10.9999 34.5453V30.5453V26.5453C9.49862 26.5453 7.9911 27.084 6.82429 28.1447L9.51498 31.1045ZM10.9999 30.5453V34.5453H19.3999V30.5453V26.5453H10.9999V30.5453ZM19.3999 30.5453V34.5453C19.0125 34.5453 18.5733 34.4089 18.1941 34.0642L20.8848 31.1045L23.5755 28.1447C22.4087 27.084 20.9012 26.5453 19.3999 26.5453V30.5453ZM20.8848 31.1045L18.1941 34.0642C17.8023 33.708 17.4999 33.1386 17.4999 32.4544H21.4999H25.4999C25.4999 30.7575 24.755 29.217 23.5755 28.1447L20.8848 31.1045ZM21.4999 32.4544H17.4999C17.4999 31.7702 17.8023 31.2008 18.1941 30.8446L20.8848 33.8043L23.5755 36.7641C24.755 35.6918 25.4999 34.1513 25.4999 32.4544H21.4999ZM20.8848 33.8043L18.1941 30.8446C18.5733 30.4999 19.0125 30.3635 19.3999 30.3635V34.3635V38.3635C20.9012 38.3635 22.4087 37.8248 23.5755 36.7641L20.8848 33.8043ZM19.3999 34.3635V30.3635H10.9999V34.3635V38.3635H19.3999V34.3635ZM10.9999 34.3635V30.3635C11.3873 30.3635 11.8265 30.4999 12.2057 30.8446L9.51498 33.8043L6.82429 36.7641C7.9911 37.8248 9.49862 38.3635 10.9999 38.3635V34.3635ZM9.51498 33.8043L12.2057 30.8446C12.5975 31.2008 12.8999 31.7702 12.8999 32.4544H8.8999H4.8999C4.8999 34.1513 5.64479 35.6918 6.82429 36.7641L9.51498 33.8043Z" fill="#7E7E7E" mask="url(#path-1-inside-1_127_1035)"/>
<path d="M3.79785 3.06445C3.11361 3.76614 2.7002 4.70886 2.7002 5.72754V36.2725C2.7002 37.2909 3.1139 38.2329 3.79785 38.9346C3.76185 38.9041 3.72522 38.8744 3.69043 38.8428C2.90179 38.1258 2.5 37.1961 2.5 36.2725V5.72754C2.5 4.80385 2.90179 3.87418 3.69043 3.15723C3.72537 3.12546 3.76169 3.0951 3.79785 3.06445ZM39.3096 3.15723C40.0982 3.87417 40.5 4.80385 40.5 5.72754V36.2725C40.5 37.1961 40.0982 38.1258 39.3096 38.8428C39.2746 38.8746 39.2374 38.9039 39.2012 38.9346C39.8854 38.2329 40.2998 37.2911 40.2998 36.2725V5.72754C40.2998 4.70863 39.8857 3.7662 39.2012 3.06445C39.2375 3.09525 39.2744 3.12529 39.3096 3.15723Z" fill="white" fill-opacity="0.2" stroke="#7E7E7E" stroke-width="4"/>
</svg>
